inDegrees=no
num_controls=7
num_derivatives=13
num_iterations=177
num_multipliers=7
num_parameters=0
num_slacks=7
num_states=26
objective=0.543883
objective_accelerations=0.060981
objective_balance=0.003335
objective_effort=0.046398
objective_height=0.423962
objective_ligament=0.009208
solver_duration=2141.252880
status=Solve_Succeeded
success=true
DataType=double
version=3
OpenSimVersion=4.5
endheader
time	/jointset/ground_pelvis/pelvis_tilt/value	/jointset/ground_pelvis/pelvis_tx/value	/jointset/ground_pelvis/pelvis_ty/value	/jointset/hip_r/hip_flexion_r/value	/jointset/hip_r/hip_adduction_r/value	/jointset/hip_r/hip_rotation_r/value	/jointset/back/lumbar_extension/value	/jointset/patellofemoral_r/patellar_flexion_r/value	/jointset/knee_r/knee_flexion_r/value	/jointset/knee_r/knee_adduction_r/value	/jointset/knee_r/knee_rotation_r/value	/jointset/ankle_r/ankle_angle_r/value	/jointset/subtalar_r/subtalar_angle_r/value	/jointset/ground_pelvis/pelvis_tilt/speed	/jointset/ground_pelvis/pelvis_tx/speed	/jointset/ground_pelvis/pelvis_ty/speed	/jointset/hip_r/hip_flexion_r/speed	/jointset/hip_r/hip_adduction_r/speed	/jointset/hip_r/hip_rotation_r/speed	/jointset/back/lumbar_extension/speed	/jointset/patellofemoral_r/patellar_flexion_r/speed	/jointset/knee_r/knee_flexion_r/speed	/jointset/knee_r/knee_adduction_r/speed	/jointset/knee_r/knee_rotation_r/speed	/jointset/ankle_r/ankle_angle_r/speed	/jointset/subtalar_r/subtalar_angle_r/speed	/forceset/tau_hip_flexion_r	/forceset/tau_hip_adduction_r	/forceset/tau_hip_rotation_r	/forceset/tau_knee_flexion_r	/forceset/tau_ankle_angle_r	/forceset/tau_subtalar_angle_r	/forceset/tau_lumbar_extension	lambda_cid13_p0	lambda_cid14_p0	lambda_cid14_p1	lambda_cid14_p2	lambda_cid14_p3	lambda_cid14_p4	lambda_cid14_p5	/jointset/ground_pelvis/pelvis_tilt/accel	/jointset/ground_pelvis/pelvis_tx/accel	/jointset/ground_pelvis/pelvis_ty/accel	/jointset/hip_r/hip_flexion_r/accel	/jointset/hip_r/hip_adduction_r/accel	/jointset/hip_r/hip_rotation_r/accel	/jointset/back/lumbar_extension/accel	/jointset/patellofemoral_r/patellar_flexion_r/accel	/jointset/knee_r/knee_flexion_r/accel	/jointset/knee_r/knee_adduction_r/accel	/jointset/knee_r/knee_rotation_r/accel	/jointset/ankle_r/ankle_angle_r/accel	/jointset/subtalar_r/subtalar_angle_r/accel	gamma_cid13_p0	gamma_cid14_p0	gamma_cid14_p1	gamma_cid14_p2	gamma_cid14_p3	gamma_cid14_p4	gamma_cid14_p5
1	-0.3312242994283121	-0.01756849792560793	0.6195763348466917	1.597189669932402	-0.2315625018157146	-0.08421034801685787	-0.4363285151031662	1.493879199071181	1.493879199071158	-0.140410831938023	0.1726974628441555	0.4363036968288039	0.1122431555113304	-0.003414239884509952	0.002176739365254818	0.01921527960731734	-0.04640240902323181	0.001935308190125226	-0.005086195420363541	-8.877357399803161e-05	-0.05760261608319209	-0.05760261608319277	0.007930311239004714	0.0006165348101733423	-0.009291015701198386	-0.0003155967608991054	-0.3110350421068286	0.01097992637010771	0.003192912671472351	-0.5243494298732314	0.01085850807952015	0.01117041489057792	0.3193445476353035	-0.04339010133694553	-46.78604310479128	-4.783004389317616	2.870098656424554	21.21400642075893	-820.1558224115819	65.40471786104851	1.225760134104244	-0.009498061822478135	2.071242554724838	-6.010296524341319	0.1879337529661072	-0.2258459747665293	-0.01036891059293382	-5.888415840447243	-5.888415840447276	1.138229923159392	0.08545553948395189	-1.294429673406588	-0.1949751472698318	6.281502386380045e-09	1.202344603395733e-08	4.221162513591441e-08	5.520666725292562e-08	-7.815395475727632e-09	-7.423267352699535e-09	9.18321340875353e-08
1.01	-0.331197636061396	-0.01754723251227571	0.619871869453223	1.596425998875163	-0.2315337725548532	-0.0842696820471996	-0.43632938882088	1.493009153193072	1.493009153193087	-0.1402718425089451	0.1727074070062753	0.4361459315494335	0.1122300973330151	0.008754060427563222	0.002075915901953467	0.0398846568374969	-0.1063191462944178	0.003809785619379973	-0.006782558229181963	-9.652957731420077e-05	-0.1164006497445395	-0.1164006497445378	0.01986581078304454	0.001370405580594019	-0.02227745401969971	-0.002303380710144746	-0.3108608814129023	0.01100770895938945	0.003255427163157039	-0.523896574458131	0.01074394224683888	0.0111657012227511	0.3191782089254845	-0.04340675011162703	-46.8029421245223	-4.783668248530819	2.865244899040335	21.24550298331966	-819.8063984809619	65.36871106249636	1.213441164499518	-0.01044213875313473	2.063734711953508	-5.980459943129961	0.1871063696393184	-0.1418149654837947	0.002437113630378066	-5.874613120107073	-5.874613120106699	1.220943289847702	0.07009920837161203	-1.303062778093812	-0.2017551183543493	1.224110750070283e-08	2.43943417952012e-08	8.393544527761532e-08	1.109208765852612e-07	-1.7602720806296e-08	-1.426093669312452e-08	1.832561848537946e-07
1.02	-0.3310490744544107	-0.0175269888636103	0.6203738877130138	1.595063540922285	-0.2314863181933525	-0.08434603641193668	-0.4363306568868505	1.491551303780124	1.491551303780177	-0.1400135514204613	0.1727248391486126	0.4358578395134716	0.112196946295287	0.02096540812926112	0.001972386431890688	0.06051201025923429	-0.1661597881505135	0.00568032831799848	-0.008490262299771354	-0.0001676432273769209	-0.1751633230510307	-0.1751633230510265	0.03179064311994	0.002114130853033614	-0.03535636701907693	-0.0043341686434865	-0.3106867207189883	0.01103549154867861	0.003317941654825672	-0.5234437190430314	0.01062937641416153	0.01116098755493881	0.3190118702156534	-0.04343381352762668	-46.82882746873033	-4.781447796324052	2.854839034234087	21.30636710971654	-819.5889859820724	65.36581337447872	1.234369612029176	-0.01003926317475193	2.062837793036408	-5.995077441323264	0.1871468068388571	-0.2281142271207239	-0.02304043994214908	-5.881343769476006	-5.88134376947601	1.136096481730521	0.0834264398877376	-1.312924609581746	-0.2035759440890497	1.768434209804142e-08	3.458446219470857e-08	1.225958873878285e-07	1.633800447222403e-07	-2.36955599927329e-08	-2.028958253087118e-08	2.660840547157731e-07
1.03	-0.3307782999794678	-0.01750765691952413	0.621081878534548	1.59310322650432	-0.2314202089814335	-0.08443962296849576	-0.4363321810364463	1.489506205351773	1.48950620535177	-0.1396361838581976	0.1727496339178839	0.4354386458745534	0.1121432852836077	0.033184700725737	0.001907308219290296	0.08107013479383306	-0.2258735085909125	0.007537318388751602	-0.01022994852660688	-7.016781445980467e-05	-0.2338302497591045	-0.2338302497590892	0.04367874913074375	0.002840036772109229	-0.04848279375244804	-0.006404856534063244	-0.3107392932488404	0.0110425005832495	0.003449239284290587	-0.5225607154925996	0.01057505862963147	0.01114762144698959	0.3191568723897185	-0.04345734920888446	-46.81779736133002	-4.772640436982447	2.838950409037178	21.16457706782593	-819.2283993408429	65.32443879615441	1.214999160843953	-0.002752212022102664	2.049891597125781	-5.955073610824944	0.1843760892286588	-0.1473141916126934	0.03619436510716634	-5.85545484989929	-5.855454849897636	1.214545860289074	0.06651323700756347	-1.312566699747055	-0.2097878670990202	2.312230760847202e-08	4.475232978440229e-08	1.612250705385367e-07	2.158059981531444e-07	-2.975070034096437e-08	-2.630997302675376e-08	3.488242084460751e-07
